<mxfile host="app.diagrams.net" modified="2023-03-23T12:33:15.742Z" agent="5.0 (Windows NT 10.0; Win64; x64) AppleWebKit/537.36 (KHTML, like Gecko) Chrome/111.0.0.0 Safari/537.36" etag="6eQjva0xjrhyglHY9wXH" version="21.0.10" type="github">
  <diagram id="C5RBs43oDa-KdzZeNtuy" name="Page-1">
    <mxGraphModel dx="1434" dy="796" grid="1" gridSize="10" guides="1" tooltips="1" connect="1" arrows="1" fold="1" page="1" pageScale="1" pageWidth="827" pageHeight="1169" math="0" shadow="0">
      <root>
        <mxCell id="WIyWlLk6GJQsqaUBKTNV-0" />
        <mxCell id="WIyWlLk6GJQsqaUBKTNV-1" parent="WIyWlLk6GJQsqaUBKTNV-0" />
        <mxCell id="_rAXjrP9ClihJOBgBBa7-14" style="edgeStyle=orthogonalEdgeStyle;rounded=0;orthogonalLoop=1;jettySize=auto;html=1;" edge="1" parent="WIyWlLk6GJQsqaUBKTNV-1" source="_rAXjrP9ClihJOBgBBa7-11" target="_rAXjrP9ClihJOBgBBa7-12">
          <mxGeometry relative="1" as="geometry" />
        </mxCell>
        <mxCell id="_rAXjrP9ClihJOBgBBa7-11" value="start" style="ellipse;whiteSpace=wrap;html=1;" vertex="1" parent="WIyWlLk6GJQsqaUBKTNV-1">
          <mxGeometry x="354" y="30" width="120" height="80" as="geometry" />
        </mxCell>
        <mxCell id="_rAXjrP9ClihJOBgBBa7-16" style="edgeStyle=orthogonalEdgeStyle;rounded=0;orthogonalLoop=1;jettySize=auto;html=1;entryX=0.5;entryY=0;entryDx=0;entryDy=0;" edge="1" parent="WIyWlLk6GJQsqaUBKTNV-1" source="_rAXjrP9ClihJOBgBBa7-12" target="_rAXjrP9ClihJOBgBBa7-15">
          <mxGeometry relative="1" as="geometry" />
        </mxCell>
        <mxCell id="_rAXjrP9ClihJOBgBBa7-12" value="podaj n&lt;br&gt;i = n&lt;br&gt;suma = 0" style="rounded=0;whiteSpace=wrap;html=1;" vertex="1" parent="WIyWlLk6GJQsqaUBKTNV-1">
          <mxGeometry x="354" y="170" width="120" height="60" as="geometry" />
        </mxCell>
        <mxCell id="_rAXjrP9ClihJOBgBBa7-17" style="edgeStyle=orthogonalEdgeStyle;rounded=0;orthogonalLoop=1;jettySize=auto;html=1;" edge="1" parent="WIyWlLk6GJQsqaUBKTNV-1" source="_rAXjrP9ClihJOBgBBa7-15">
          <mxGeometry relative="1" as="geometry">
            <mxPoint x="620" y="335" as="targetPoint" />
          </mxGeometry>
        </mxCell>
        <mxCell id="_rAXjrP9ClihJOBgBBa7-18" value="nie" style="edgeLabel;html=1;align=center;verticalAlign=middle;resizable=0;points=[];" vertex="1" connectable="0" parent="_rAXjrP9ClihJOBgBBa7-17">
          <mxGeometry x="-0.2609" relative="1" as="geometry">
            <mxPoint y="-15" as="offset" />
          </mxGeometry>
        </mxCell>
        <mxCell id="_rAXjrP9ClihJOBgBBa7-19" style="edgeStyle=orthogonalEdgeStyle;rounded=0;orthogonalLoop=1;jettySize=auto;html=1;" edge="1" parent="WIyWlLk6GJQsqaUBKTNV-1" source="_rAXjrP9ClihJOBgBBa7-15">
          <mxGeometry relative="1" as="geometry">
            <mxPoint x="230" y="335" as="targetPoint" />
          </mxGeometry>
        </mxCell>
        <mxCell id="_rAXjrP9ClihJOBgBBa7-20" value="tak" style="edgeLabel;html=1;align=center;verticalAlign=middle;resizable=0;points=[];" vertex="1" connectable="0" parent="_rAXjrP9ClihJOBgBBa7-19">
          <mxGeometry x="0.2241" y="-3" relative="1" as="geometry">
            <mxPoint x="15" y="-12" as="offset" />
          </mxGeometry>
        </mxCell>
        <mxCell id="_rAXjrP9ClihJOBgBBa7-15" value="i &amp;gt; 0" style="rhombus;whiteSpace=wrap;html=1;" vertex="1" parent="WIyWlLk6GJQsqaUBKTNV-1">
          <mxGeometry x="346" y="270" width="136" height="130" as="geometry" />
        </mxCell>
        <mxCell id="_rAXjrP9ClihJOBgBBa7-23" style="edgeStyle=orthogonalEdgeStyle;rounded=0;orthogonalLoop=1;jettySize=auto;html=1;" edge="1" parent="WIyWlLk6GJQsqaUBKTNV-1" source="_rAXjrP9ClihJOBgBBa7-21">
          <mxGeometry relative="1" as="geometry">
            <mxPoint x="410" y="250" as="targetPoint" />
            <Array as="points">
              <mxPoint x="170" y="250" />
            </Array>
          </mxGeometry>
        </mxCell>
        <mxCell id="_rAXjrP9ClihJOBgBBa7-21" value="pobierz a&amp;nbsp;&lt;br&gt;suma = suma + a&lt;br&gt;i = i -1" style="rounded=0;whiteSpace=wrap;html=1;" vertex="1" parent="WIyWlLk6GJQsqaUBKTNV-1">
          <mxGeometry x="110" y="305" width="120" height="60" as="geometry" />
        </mxCell>
        <mxCell id="_rAXjrP9ClihJOBgBBa7-26" style="edgeStyle=orthogonalEdgeStyle;rounded=0;orthogonalLoop=1;jettySize=auto;html=1;" edge="1" parent="WIyWlLk6GJQsqaUBKTNV-1" source="_rAXjrP9ClihJOBgBBa7-22">
          <mxGeometry relative="1" as="geometry">
            <mxPoint x="680" y="420" as="targetPoint" />
          </mxGeometry>
        </mxCell>
        <mxCell id="_rAXjrP9ClihJOBgBBa7-22" value="suma / n" style="rounded=0;whiteSpace=wrap;html=1;" vertex="1" parent="WIyWlLk6GJQsqaUBKTNV-1">
          <mxGeometry x="620" y="305" width="120" height="60" as="geometry" />
        </mxCell>
        <mxCell id="_rAXjrP9ClihJOBgBBa7-24" value="stop" style="ellipse;whiteSpace=wrap;html=1;" vertex="1" parent="WIyWlLk6GJQsqaUBKTNV-1">
          <mxGeometry x="622" y="420" width="116" height="75" as="geometry" />
        </mxCell>
      </root>
    </mxGraphModel>
  </diagram>
</mxfile>
